<?xml version="1.0" encoding="utf-8"?>
<!-- Generator: Adobe Illustrator 27.5.0, SVG Export Plug-In . SVG Version: 6.00 Build 0)  -->
<svg version="1.1" xmlns="http://www.w3.org/2000/svg" xmlns:xlink="http://www.w3.org/1999/xlink" x="0px" y="0px"
	 viewBox="0 0 500 500" style="enable-background:new 0 0 500 500;" xml:space="preserve">
<g id="Background_Complete">
	<g>
		<g>
			<g>
				<g>
					<rect y="382.398" style="fill:#E0E0E0;" width="500" height="0.25"/>
					<rect x="412.833" y="388.833" style="fill:#E0E0E0;" width="32.753" height="0.25"/>
					<rect x="289.349" y="394.264" style="fill:#E0E0E0;" width="40.917" height="0.25"/>
					<rect x="336.405" y="394.264" style="fill:#E0E0E0;" width="9.484" height="0.25"/>
					<rect x="93.167" y="391.389" style="fill:#E0E0E0;" width="38.5" height="0.25"/>
					<rect x="174.167" y="391.389" style="fill:#E0E0E0;" width="34.334" height="0.25"/>
					<rect x="368.232" y="388.833" style="fill:#E0E0E0;" width="34.919" height="0.25"/>
					<rect x="51.646" y="391.389" style="fill:#E0E0E0;" width="33.354" height="0.25"/>
					<path style="fill:#E0E0E0;" d="M237.014,337.8H43.915c-3.147,0-5.708-2.561-5.708-5.708V60.66c0-3.147,2.561-5.708,5.708-5.708
						h193.099c3.146,0,5.707,2.561,5.707,5.708v271.432C242.721,335.239,240.16,337.8,237.014,337.8z M43.915,55.203
						c-3.01,0-5.458,2.448-5.458,5.458v271.432c0,3.01,2.448,5.458,5.458,5.458h193.099c3.009,0,5.457-2.448,5.457-5.458V60.66
						c0-3.009-2.448-5.458-5.457-5.458H43.915z"/>
					<path style="fill:#E0E0E0;" d="M453.31,337.8H260.212c-3.146,0-5.707-2.561-5.707-5.708V60.66c0-3.147,2.561-5.708,5.707-5.708
						H453.31c3.148,0,5.708,2.561,5.708,5.708v271.432C459.019,335.239,456.458,337.8,453.31,337.8z M260.212,55.203
						c-3.009,0-5.457,2.448-5.457,5.458v271.432c0,3.01,2.448,5.458,5.457,5.458H453.31c3.01,0,5.458-2.448,5.458-5.458V60.66
						c0-3.009-2.448-5.458-5.458-5.458H260.212z"/>
				</g>
			</g>
		</g>
		<g>
			<g>
				<path style="fill:#F0F0F0;" d="M152.396,143.292l20.187-19.909l-4.215-8.187c0-0.001,0.001-0.002,0.001-0.002
					c0.376-0.816,0.722-1.637,1.047-2.471c0-0.001,0-0.001,0.001-0.002l8.804-2.686l0.196-28.352l-8.771-2.809c0,0,0-0.001,0-0.001
					c-0.313-0.838-0.643-1.668-1.008-2.489l4.327-8.126l-19.909-20.187l-8.185,4.214c0,0-0.001,0-0.001-0.001
					c-0.816-0.376-1.641-0.718-2.475-1.043l-2.687-8.808l-28.352-0.196l-2.809,8.771c-0.841,0.308-1.666,0.643-2.486,1.007
					c-0.001,0-0.002,0.001-0.003,0.001l-8.127-4.327L77.745,67.6l4.216,8.188c-0.375,0.814-0.721,1.641-1.045,2.473l-8.809,2.687
					l-0.196,28.352l8.769,2.809c0,0,0,0,0,0.001c0.313,0.838,0.644,1.668,1.008,2.489c0,0.001,0.001,0.001,0.001,0.002l-4.326,8.124
					l19.909,20.187l8.184-4.214c0.816,0.376,1.641,0.718,2.475,1.043c0.001,0,0.001,0,0.002,0l2.687,8.808l28.352,0.197l2.809-8.772
					c0.835-0.312,1.666-0.646,2.485-1.009L152.396,143.292z M139.982,110.512c-8.303,8.189-21.662,8.097-29.845-0.201
					c-8.183-8.298-8.091-21.656,0.213-29.845c8.297-8.183,21.656-8.091,29.84,0.207C148.372,88.969,148.28,102.328,139.982,110.512z
					"/>
				<path style="fill:#E0E0E0;" d="M75.728,196.029l13.256-13.074l-2.768-5.376c0-0.001,0.001-0.001,0.001-0.002
					c0.247-0.536,0.474-1.075,0.688-1.622c0,0,0-0.001,0-0.001l5.781-1.764l0.129-18.618l-5.759-1.844c0,0,0,0,0-0.001
					c-0.205-0.55-0.422-1.095-0.662-1.634l2.842-5.336L76.161,133.5l-5.375,2.767c0,0,0,0-0.001,0
					c-0.536-0.247-1.078-0.471-1.625-0.685l-1.764-5.784l-18.618-0.129l-1.845,5.76c-0.553,0.202-1.094,0.422-1.632,0.661
					c-0.001,0-0.001,0.001-0.002,0.001l-5.337-2.842l-13.256,13.074l2.768,5.377c-0.247,0.535-0.473,1.078-0.686,1.624l-5.784,1.765
					l-0.129,18.618l5.758,1.844c0,0,0,0,0,0c0.206,0.55,0.423,1.095,0.662,1.635c0,0,0,0.001,0,0.001l-2.841,5.335l13.074,13.256
					l5.374-2.767c0.536,0.247,1.078,0.472,1.625,0.685c0,0,0.001,0,0.001,0l1.764,5.784l18.618,0.129l1.845-5.761
					c0.549-0.205,1.094-0.424,1.632-0.663L75.728,196.029z M67.576,174.502c-5.452,5.378-14.225,5.317-19.599-0.132
					c-5.374-5.449-5.313-14.221,0.14-19.599c5.449-5.374,14.221-5.313,19.595,0.136C73.086,160.356,73.025,169.129,67.576,174.502z"
					/>
				<path style="fill:#F0F0F0;" d="M460.722,361.707l9.626-9.493l-2.01-3.904c0,0,0-0.001,0.001-0.001
					c0.179-0.389,0.344-0.78,0.499-1.178c0,0,0-0.001,0-0.001l4.198-1.281l0.094-13.519l-4.182-1.339c0,0,0,0,0,0
					c-0.149-0.4-0.307-0.795-0.481-1.187l2.063-3.875l-9.493-9.626l-3.903,2.009c0,0,0,0-0.001,0
					c-0.389-0.179-0.783-0.342-1.18-0.497l-1.281-4.2l-13.519-0.094l-1.339,4.182c-0.401,0.147-0.794,0.306-1.185,0.48
					c0,0-0.001,0-0.001,0.001l-3.875-2.063l-9.626,9.493l2.01,3.904c-0.179,0.388-0.344,0.783-0.498,1.179l-4.2,1.281l-0.094,13.519
					l4.181,1.339c0,0,0,0,0,0c0.149,0.4,0.307,0.795,0.481,1.187c0,0,0,0,0,0.001l-2.063,3.874l9.493,9.626l3.902-2.009
					c0.389,0.179,0.783,0.342,1.18,0.497c0,0,0.001,0,0.001,0l1.281,4.2l13.519,0.094l1.34-4.183
					c0.398-0.149,0.794-0.308,1.185-0.481L460.722,361.707z M454.803,346.076c-3.959,3.905-10.329,3.861-14.231-0.096
					c-3.902-3.956-3.858-10.326,0.101-14.231c3.956-3.902,10.326-3.858,14.228,0.099
					C458.804,335.805,458.76,342.174,454.803,346.076z"/>
			</g>
			<g>
				<path style="fill:#E0E0E0;" d="M342.592,346.879H48.65c-3.496,0-6.34-2.844-6.34-6.34V119.854c0-3.496,2.844-6.34,6.34-6.34
					h293.942c3.496,0,6.34,2.844,6.34,6.34v220.685C348.932,344.035,346.088,346.879,342.592,346.879z M48.65,114.014
					c-3.22,0-5.84,2.62-5.84,5.84v220.685c0,3.22,2.62,5.84,5.84,5.84h293.942c3.22,0,5.84-2.62,5.84-5.84V119.854
					c0-3.22-2.62-5.84-5.84-5.84H48.65z"/>
				<path style="fill:#E0E0E0;" d="M55.922,125.172c-1.924,0-3.49-1.565-3.49-3.49c0-1.924,1.565-3.489,3.49-3.489
					c1.924,0,3.489,1.565,3.489,3.489C59.412,123.607,57.846,125.172,55.922,125.172z M55.922,118.693
					c-1.648,0-2.99,1.341-2.99,2.989c0,1.648,1.341,2.99,2.99,2.99c1.648,0,2.989-1.341,2.989-2.99
					C58.912,120.034,57.571,118.693,55.922,118.693z"/>
				<path style="fill:#E0E0E0;" d="M67.4,125.172c-1.924,0-3.489-1.565-3.489-3.49c0-1.924,1.565-3.489,3.489-3.489
					c1.924,0,3.489,1.565,3.489,3.489C70.89,123.607,69.324,125.172,67.4,125.172z M67.4,118.693c-1.648,0-2.989,1.341-2.989,2.989
					c0,1.648,1.341,2.99,2.989,2.99s2.989-1.341,2.989-2.99C70.39,120.034,69.049,118.693,67.4,118.693z"/>
				<path style="fill:#E0E0E0;" d="M78.878,125.172c-1.924,0-3.489-1.565-3.489-3.49c0-1.924,1.565-3.489,3.489-3.489
					c1.924,0,3.49,1.565,3.49,3.489C82.368,123.607,80.803,125.172,78.878,125.172z M78.878,118.693
					c-1.648,0-2.989,1.341-2.989,2.989c0,1.648,1.341,2.99,2.989,2.99c1.648,0,2.99-1.341,2.99-2.99
					C81.868,120.034,80.527,118.693,78.878,118.693z"/>
			</g>
			<g>
				<g>
					<g>
						<g>
							<path style="fill:#E0E0E0;" d="M459.334,304.396H165.392c-3.35,0-6.09-2.741-6.09-6.09V77.621c0-3.35,2.741-6.09,6.09-6.09
								h293.941c3.35,0,6.09,2.741,6.09,6.09v220.685C465.424,301.655,462.683,304.396,459.334,304.396z"/>
							<path style="fill:#E0E0E0;" d="M459.334,305.396H165.392c-3.91,0-7.09-3.181-7.09-7.09V77.621c0-3.91,3.181-7.09,7.09-7.09
								h293.942c3.909,0,7.09,3.181,7.09,7.09v220.685C466.424,302.215,463.243,305.396,459.334,305.396z M165.392,72.531
								c-2.807,0-5.09,2.284-5.09,5.09v220.685c0,2.807,2.284,5.09,5.09,5.09h293.942c2.807,0,5.09-2.283,5.09-5.09V77.621
								c0-2.807-2.283-5.09-5.09-5.09H165.392z"/>
						</g>
						<path style="fill:#F0F0F0;" d="M159.302,87.278v211.027c0,3.35,2.741,6.09,6.09,6.09h293.941c3.35,0,6.09-2.741,6.09-6.09
							V87.278H159.302z"/>
						<rect x="160.426" y="95.377" style="fill:#FFFFFF;" width="303.873" height="200.921"/>
						<path style="fill:#E6E6E6;" d="M453.549,277.914H171.177c-0.056,0-0.101-0.046-0.101-0.102V108.405
							c0-0.056,0.045-0.101,0.101-0.101h282.372c0.056,0,0.102,0.045,0.102,0.101v169.408
							C453.65,277.868,453.604,277.914,453.549,277.914z M171.278,277.711h282.169V108.506H171.278V277.711z"/>
						<path style="fill:#FFFFFF;" d="M172.665,83.094c-2.01,0-3.645-1.635-3.645-3.645c0-2.009,1.635-3.644,3.645-3.644
							c2.009,0,3.644,1.635,3.644,3.644C176.309,81.46,174.674,83.094,172.665,83.094z M172.665,76.615
							c-1.563,0-2.835,1.272-2.835,2.835c0,1.563,1.272,2.835,2.835,2.835c1.563,0,2.834-1.272,2.834-2.835
							C175.499,77.887,174.227,76.615,172.665,76.615z"/>
						<path style="fill:#FFFFFF;" d="M184.143,83.094c-2.009,0-3.644-1.635-3.644-3.645c0-2.009,1.635-3.644,3.644-3.644
							c2.009,0,3.644,1.635,3.644,3.644C187.787,81.46,186.152,83.094,184.143,83.094z M184.143,76.615
							c-1.563,0-2.835,1.272-2.835,2.835c0,1.563,1.271,2.835,2.835,2.835s2.835-1.272,2.835-2.835
							C186.977,77.887,185.706,76.615,184.143,76.615z"/>
						<path style="fill:#FFFFFF;" d="M195.621,83.094c-2.009,0-3.644-1.635-3.644-3.645c0-2.009,1.635-3.644,3.644-3.644
							c2.01,0,3.645,1.635,3.645,3.644C199.265,81.46,197.63,83.094,195.621,83.094z M195.621,76.615
							c-1.563,0-2.835,1.272-2.835,2.835c0,1.563,1.271,2.835,2.835,2.835s2.835-1.272,2.835-2.835
							C198.456,77.887,197.184,76.615,195.621,76.615z"/>
						<rect x="159.302" y="86.873" style="fill:#E0E0E0;" width="306.122" height="0.81"/>
					</g>
				</g>
				<g>
					
						<rect x="298.122" y="115.334" transform="matrix(-1 -1.224647e-16 1.224647e-16 -1 736.2817 373.3975)" style="fill:#F0F0F0;" width="140.038" height="142.73"/>
					<g>
						
							<rect x="178.106" y="115.334" transform="matrix(-1 -1.224647e-16 1.224647e-16 -1 448.6693 277.0984)" style="fill:#F0F0F0;" width="92.458" height="46.431"/>
					</g>
					<g>
						
							<rect x="178.106" y="179.132" transform="matrix(-1 -1.224647e-16 1.224647e-16 -1 448.6693 475.4294)" style="fill:#F0F0F0;" width="92.458" height="117.166"/>
					</g>
				</g>
			</g>
		</g>
	</g>
</g>
<g id="Background_Simple" style="display:none;">
	<path style="display:inline;fill:#407BFF;" d="M119.697,117.938C68.72,144.703,9.211,130.31,25.287,211.968
		c11.767,59.773,58.449,71.761,110.175,75.246c54.268,3.656,85.994-4.201,126.71-35.89c50.346-39.183,101.8-12.166,153.485-40.998
		c41.575-23.192,55.196-92.65,19.971-129.634c-53.605-56.281-78.331,16.554-123.139,27.355
		C268.237,118.713,259.859,61,205.017,42.973C132.875,19.26,172.018,90.466,119.697,117.938z"/>
	<path style="display:inline;opacity:0.9;fill:#FFFFFF;" d="M119.697,117.938C68.72,144.703,9.211,130.31,25.287,211.968
		c11.767,59.773,58.449,71.761,110.175,75.246c54.268,3.656,85.994-4.201,126.71-35.89c50.346-39.183,101.8-12.166,153.485-40.998
		c41.575-23.192,55.196-92.65,19.971-129.634c-53.605-56.281-78.331,16.554-123.139,27.355
		C268.237,118.713,259.859,61,205.017,42.973C132.875,19.26,172.018,90.466,119.697,117.938z"/>
</g>
<g id="Shadow">
	<ellipse style="fill:#F5F5F5;" cx="250" cy="416.238" rx="193.889" ry="11.323"/>
</g>
<g id="Window">
	<g>
		<g>
			<path style="fill:#407BFF;" d="M429.39,96.793H70.621c-5.288,0-9.621,4.322-9.621,9.61v239.457c0,5.288,4.333,9.61,9.621,9.61
				H429.39c5.277,0,9.61-4.322,9.61-9.61V106.403C439,101.116,434.667,96.793,429.39,96.793z"/>
			<path style="opacity:0.3;fill:#FFFFFF;" d="M429.39,96.793H70.621c-5.288,0-9.621,4.322-9.621,9.61v239.457
				c0,5.288,4.333,9.61,9.621,9.61H429.39c5.277,0,9.61-4.322,9.61-9.61V106.403C439,101.116,434.667,96.793,429.39,96.793z"/>
		</g>
		<path style="fill:#FAFAFA;" d="M132.444,112.834H81.655c-1.93,0-3.5-1.57-3.5-3.5c0-1.93,1.57-3.5,3.5-3.5h50.789
			c1.93,0,3.5,1.57,3.5,3.5C135.944,111.263,134.374,112.834,132.444,112.834z M81.655,106.834c-1.378,0-2.5,1.122-2.5,2.5
			c0,1.378,1.122,2.5,2.5,2.5h50.789c1.379,0,2.5-1.122,2.5-2.5c0-1.378-1.121-2.5-2.5-2.5H81.655z"/>
		<path style="fill:#FAFAFA;" d="M148.92,112.834h-3.389c-1.93,0-3.5-1.57-3.5-3.5c0-1.93,1.57-3.5,3.5-3.5h3.389
			c1.93,0,3.5,1.57,3.5,3.5C152.42,111.263,150.85,112.834,148.92,112.834z M145.531,106.834c-1.379,0-2.5,1.122-2.5,2.5
			c0,1.378,1.121,2.5,2.5,2.5h3.389c1.378,0,2.5-1.122,2.5-2.5c0-1.378-1.122-2.5-2.5-2.5H145.531z"/>
		<path style="fill:#FAFAFA;" d="M163.093,112.834h-3.389c-1.93,0-3.5-1.57-3.5-3.5c0-1.93,1.57-3.5,3.5-3.5h3.389
			c1.93,0,3.5,1.57,3.5,3.5C166.593,111.263,165.023,112.834,163.093,112.834z M159.704,106.834c-1.378,0-2.5,1.122-2.5,2.5
			c0,1.378,1.122,2.5,2.5,2.5h3.389c1.378,0,2.5-1.122,2.5-2.5c0-1.378-1.122-2.5-2.5-2.5H159.704z"/>
		<g>
			<path style="fill:#407BFF;" d="M61,121.652v224.208c0,5.288,4.333,9.61,9.621,9.61H429.39c5.277,0,9.61-4.322,9.61-9.61V121.652
				H61z"/>
			<path style="opacity:0.6;fill:#FFFFFF;" d="M61,121.652v224.208c0,5.288,4.333,9.61,9.621,9.61H429.39
				c5.277,0,9.61-4.322,9.61-9.61V121.652H61z"/>
		</g>
		<path style="fill:#FAFAFA;" d="M62.777,121.652v215.581c0,3.013,2.443,5.456,5.457,5.456h363.533c3.013,0,5.456-2.443,5.456-5.456
			V121.652H62.777z"/>
		<g>
			<path style="fill:#407BFF;" d="M80.044,134.342v40.034h256.913v-40.034H80.044z"/>
			<path style="opacity:0.9;fill:#FFFFFF;" d="M80.044,134.342v40.034h256.913v-40.034H80.044z"/>
		</g>
		<g>
			<path style="fill:#407BFF;" d="M335.957,185.941v106.2H81.044v-106.2H335.957 M336.957,184.941H80.044v108.2h256.913V184.941
				L336.957,184.941z"/>
			<path style="opacity:0.9;fill:#FFFFFF;" d="M335.957,185.941v106.2H81.044v-106.2H335.957 M336.957,184.941H80.044v108.2h256.913
				V184.941L336.957,184.941z"/>
		</g>
	</g>
</g>
<g id="Character_2">
	<g>
		<polygon style="fill:#FF8B7B;" points="365.826,406.937 358.281,406.937 356.274,389.467 363.818,389.467 		"/>
		<polygon style="fill:#FF8B7B;" points="411.581,406.937 404.037,406.937 398.16,389.467 405.704,389.467 		"/>
		<path style="fill:#263238;" d="M403.031,406.064l9.197,0c0.308,0,0.576,0.214,0.642,0.515l1.49,6.706
			c0.155,0.696-0.392,1.354-1.105,1.342c-2.959-0.051-5.118-0.224-8.846-0.224c-2.293,0-7.017,0.238-10.184,0.238
			c-3.097,0-3.58-3.131-2.284-3.415c5.813-1.272,8.002-3.025,9.863-4.698C402.142,406.226,402.579,406.064,403.031,406.064z"/>
		<path style="fill:#263238;" d="M358.334,406.064h8.239c0.308,0,0.575,0.214,0.642,0.515l1.49,6.706
			c0.155,0.695-0.373,1.354-1.085,1.342c-2.972-0.05-7.266-0.225-11.002-0.225c-4.368,0-8.14,0.238-13.262,0.238
			c-3.097,0-3.957-3.131-2.66-3.415c5.902-1.291,10.72-1.429,15.82-4.574C357.071,406.31,357.683,406.064,358.334,406.064z"/>
		<path style="fill:#FF8B7B;" d="M370.153,219.749c-0.75,5.843-1.572,11.713-2.443,17.55l-2.615,17.761
			c-0.397,2.206-1.315,4.318-2.531,6.034c-1.214,1.725-2.652,3.096-4.125,4.229c-2.971,2.239-6.097,3.585-9.177,4.641
			c-3.094,1.027-6.185,1.71-9.274,2.18c-1.545,0.234-3.092,0.395-4.636,0.526c-1.56,0.134-3.056,0.213-4.7,0.211l-0.512-5.641
			c2.689-0.619,5.541-1.34,8.21-2.226c2.694-0.86,5.318-1.842,7.741-3.008c2.417-1.149,4.65-2.525,6.286-4.046
			c0.81-0.758,1.453-1.548,1.871-2.306c0.408-0.766,0.622-1.465,0.689-2.193l0.29-4.206c0.102-1.5,0.241-2.989,0.371-4.481
			c0.265-2.98,0.557-5.953,0.889-8.918c0.649-5.935,1.421-11.829,2.347-17.737L370.153,219.749z"/>
		<g>
			<path style="fill:#407BFF;" d="M372.638,215.963c2.542,6.75-3.547,29.372-3.547,29.372l-16.759-8.38c0,0,0.79-11.28,4.622-19.95
				C360.827,208.243,369.849,208.556,372.638,215.963z"/>
			<path style="opacity:0.3;" d="M372.638,215.963c2.542,6.75-3.547,29.372-3.547,29.372l-16.759-8.38c0,0,0.79-11.28,4.622-19.95
				C360.827,208.243,369.849,208.556,372.638,215.963z"/>
		</g>
		<path style="fill:#FF8B7B;" d="M334.152,266.52l-8.232,0.546l3.845,8.836c0,0,5.282-0.003,6.778-5.29L334.152,266.52z"/>
		<polygon style="fill:#FF8B7B;" points="318.493,270.536 323.056,276.722 329.765,275.902 325.92,267.066 		"/>
		<g>
			<polygon style="fill:#EA7063;" points="356.276,389.472 357.44,399.613 364.935,399.161 363.823,389.472 			"/>
			<polygon style="fill:#EA7063;" points="405.707,389.472 398.16,389.472 402.102,401.174 409.119,399.599 			"/>
		</g>
		<g>
			<path style="fill:#407BFF;" d="M363.681,210.801c0,0-8.904,22.781-0.447,65.206c12.158,0,34.434,0,40.35,0
				c0.278-6.194-3.614-36.41,2.36-65.595c0,0-6.916-1.388-13.508-1.706c-5.156-0.249-12.62-0.413-17.153,0.001
				C369.309,209.252,363.681,210.801,363.681,210.801z"/>
			<path style="opacity:0.3;" d="M363.681,210.801c0,0-8.904,22.781-0.447,65.206c12.158,0,34.434,0,40.35,0
				c0.278-6.194-3.614-36.41,2.36-65.595c0,0-6.916-1.388-13.508-1.706c-5.156-0.249-12.62-0.413-17.153,0.001
				C369.309,209.252,363.681,210.801,363.681,210.801z"/>
		</g>
		<g>
			<path style="fill:#407BFF;" d="M378.42,232.116c-0.537,5.067-3.322,8.926-6.221,8.619c-2.899-0.307-4.813-4.664-4.276-9.731
				c0.537-5.067,3.322-8.926,6.221-8.619C377.042,222.692,378.957,227.049,378.42,232.116z"/>
			<path style="opacity:0.1;fill:#FFFFFF;" d="M378.42,232.116c-0.537,5.067-3.322,8.926-6.221,8.619
				c-2.899-0.307-4.813-4.664-4.276-9.731c0.537-5.067,3.322-8.926,6.221-8.619C377.042,222.692,378.957,227.049,378.42,232.116z"/>
		</g>
		<g>
			<path style="fill:#407BFF;" d="M397.722,224.359c1.315-6.658,3.883-5.508,6.316-2.226c-1.16,9.391-1.481,18.544-1.439,26.61
				C400.942,245.916,395.516,235.521,397.722,224.359z"/>
			<path style="opacity:0.4;" d="M397.722,224.359c1.315-6.658,3.883-5.508,6.316-2.226c-1.16,9.391-1.481,18.544-1.439,26.61
				C400.942,245.916,395.516,235.521,397.722,224.359z"/>
		</g>
		<path style="fill:#FF8B7B;" d="M390.738,189.392c-1.082,5.519-2.162,15.631,1.699,19.314c0,0-1.509,5.598-11.764,5.598
			c-11.276,0-5.389-5.598-5.389-5.598c6.154-1.47,5.995-6.036,4.923-10.324L390.738,189.392z"/>
		<path style="fill:#EA7063;" d="M386.445,193.061l-6.232,5.317c0.257,1.015,0.457,2.044,0.529,3.045
			c2.351-0.34,5.581-2.921,5.83-5.382C386.696,194.813,386.645,193.633,386.445,193.061z"/>
		<path style="fill:#263238;" d="M375.028,168.734c-4.151,3.223-4.12,16.12,2.171,16.389S382.89,162.63,375.028,168.734z"/>
		<path style="fill:#FF8B7B;" d="M392.337,182.872c-2.19,7.16-3.108,11.462-7.673,14.311c-6.867,4.286-15.038-1.194-15.032-8.864
			c0.006-6.904,3.586-17.452,11.393-18.638C388.717,168.513,394.527,175.712,392.337,182.872z"/>
		<path style="fill:#263238;" d="M390.122,189.871c-4.216,0.659-6.511-21.017,3.528-16.213
			C407.917,180.485,396.937,188.806,390.122,189.871z"/>
		<path style="fill:#263238;" d="M390.515,175.648c-5.182-0.448-12.691-0.225-14.321-6.638c-2.273-8.945,8.412-10.257,11.055-3.418
			c6.361-2.094,23.875,8.823,12.208,14.366L390.515,175.648z"/>
		<path style="fill:#FF8B7B;" d="M393.697,191.669c-1.432,1.423-3.387,2.053-5.046,2.021c-2.495-0.048-3.028-2.452-1.736-4.432
			c1.163-1.783,3.862-3.906,6.078-2.899C395.177,187.35,395.334,190.042,393.697,191.669z"/>
		<path style="fill:#263238;" d="M363.234,276.007c0,0-29.419,40.768-28.598,63.774c0.853,23.929,19.843,56.952,19.843,56.952
			l12.271-2.816c0,0-12.205-28.808-11.637-52.309c0.62-25.62,34.645-45.836,34.645-65.601
			C377.281,276.007,363.234,276.007,363.234,276.007z"/>
		<path style="fill:#263238;" d="M377.548,276.007c0,0-14.991,42.016-10.291,63.615c5.147,23.652,30.959,58.599,30.959,58.599
			l12.356-3.4c0,0-16.718-30.07-19.655-53.488c-3.188-25.416,12.668-46.425,12.668-65.327
			C388.132,276.007,377.548,276.007,377.548,276.007z"/>
		<g>
			<polygon style="fill:#407BFF;" points="396.378,399.93 414.137,396.634 413.25,391.855 393.341,395.228 			"/>
			<polygon style="opacity:0.4;fill:#FFFFFF;" points="396.378,399.93 414.137,396.634 413.25,391.855 393.341,395.228 			"/>
		</g>
		<g>
			<polygon style="fill:#407BFF;" points="351.918,397.802 369.893,396.028 369.41,391.133 349.292,392.859 			"/>
			<polygon style="opacity:0.4;fill:#FFFFFF;" points="351.918,397.802 369.893,396.028 369.41,391.133 349.292,392.859 			"/>
		</g>
		<path style="fill:#263238;" d="M380.827,182.258c-0.142,0.592-0.571,0.996-0.957,0.903c-0.387-0.093-0.585-0.648-0.443-1.239
			c0.142-0.592,0.571-0.996,0.957-0.903C380.771,181.111,380.969,181.666,380.827,182.258z"/>
		<path style="fill:#263238;" d="M374.139,180.653c-0.142,0.592-0.571,0.996-0.957,0.903s-0.585-0.648-0.443-1.239
			c0.142-0.592,0.571-0.996,0.957-0.903C374.083,179.507,374.281,180.061,374.139,180.653z"/>
		<path style="fill:#FF5652;" d="M376.195,181.458c0,0-2.164,3.091-4.041,4.382c0.812,1.228,2.699,1.209,2.699,1.209
			L376.195,181.458z"/>
		<path style="fill:#263238;" d="M377.524,189.259c-0.413,0-0.86-0.048-1.34-0.163c-0.096-0.023-0.154-0.12-0.132-0.215
			c0.023-0.096,0.114-0.158,0.216-0.132c2.597,0.624,4.244-0.899,4.261-0.915c0.073-0.067,0.185-0.065,0.253,0.007
			c0.067,0.072,0.064,0.185-0.007,0.253C380.715,188.15,379.517,189.259,377.524,189.259z"/>
		<path style="fill:#263238;" d="M383.443,180.595c-0.138,0-0.269-0.08-0.327-0.214c-0.639-1.46-1.935-1.692-1.947-1.694
			c-0.195-0.033-0.326-0.217-0.294-0.411c0.033-0.195,0.219-0.325,0.411-0.294c0.069,0.012,1.692,0.302,2.484,2.113
			c0.079,0.181-0.003,0.392-0.184,0.471C383.54,180.585,383.491,180.595,383.443,180.595z"/>
		<path style="fill:#263238;" d="M371.846,177.663c-0.08,0-0.16-0.027-0.227-0.082c-0.152-0.125-0.175-0.35-0.05-0.503
			c1.256-1.528,2.901-1.364,2.967-1.357c0.196,0.021,0.338,0.198,0.316,0.394c-0.022,0.196-0.203,0.333-0.393,0.316
			c-0.063-0.005-1.34-0.114-2.337,1.101C372.051,177.619,371.949,177.663,371.846,177.663z"/>
		<g>
			
				<rect x="246.403" y="323.876" transform="matrix(0.993 -0.1183 0.1183 0.993 -36.5456 33.0378)" style="fill:#407BFF;" width="27.264" height="0.999"/>
			
				<rect x="283.161" y="320.45" transform="matrix(0.9929 -0.1193 0.1193 0.9929 -36.2211 36.7361)" style="fill:#407BFF;" width="11.226" height="0.999"/>
			
				<rect x="210.343" y="269.989" transform="matrix(0.993 -0.1184 0.1184 0.993 -32.1665 41.2678)" style="fill:#407BFF;" width="241.778" height="42.725"/>
			<g>
				
					<rect x="303.771" y="278.19" transform="matrix(0.993 -0.1184 0.1184 0.993 -31.5728 44.5683)" style="fill:#407BFF;" width="111.069" height="19.627"/>
				
					<rect x="303.771" y="278.19" transform="matrix(0.993 -0.1184 0.1184 0.993 -31.5728 44.5683)" style="opacity:0.2;fill:#FFFFFF;" width="111.069" height="19.627"/>
			</g>
			<g>
				<path style="fill:#407BFF;" d="M249.477,301.1c0.814,6.825-4.059,13.017-10.883,13.83c-6.824,0.814-13.017-4.059-13.83-10.884
					c-0.814-6.824,4.059-13.017,10.884-13.83C242.471,289.402,248.664,294.275,249.477,301.1z"/>
				<path style="opacity:0.2;fill:#FFFFFF;" d="M249.477,301.1c0.814,6.825-4.059,13.017-10.883,13.83
					c-6.824,0.814-13.017-4.059-13.83-10.884c-0.814-6.824,4.059-13.017,10.884-13.83
					C242.471,289.402,248.664,294.275,249.477,301.1z"/>
			</g>
			<g>
				
					<ellipse transform="matrix(0.6094 -0.7929 0.7929 0.6094 -130.2107 332.4466)" style="fill:#407BFF;" cx="272.304" cy="298.378" rx="12.444" ry="12.444"/>
				
					<ellipse transform="matrix(0.6094 -0.7929 0.7929 0.6094 -130.2107 332.4466)" style="opacity:0.2;fill:#FFFFFF;" cx="272.304" cy="298.378" rx="12.444" ry="12.444"/>
			</g>
		</g>
		<path style="fill:#FF8B7B;" d="M408.823,216.282c0.652,1.398,1.193,2.641,1.718,3.973c0.529,1.311,1.032,2.628,1.522,3.951
			c0.956,2.655,1.826,5.347,2.579,8.09c0.776,2.734,1.395,5.54,1.907,8.392l0.357,2.152l0.264,2.192
			c0.098,0.724,0.14,1.477,0.193,2.221l0.077,1.117l0.019,0.279l0.017,0.464c0.013,0.356-0.006,0.667-0.026,0.988
			c-0.228,2.471-0.96,4.106-1.682,5.632c-0.741,1.504-1.556,2.812-2.396,4.062c-1.693,2.479-3.528,4.675-5.415,6.784
			c-3.798,4.203-7.836,7.943-12.198,11.476l-3.982-4.028c3.268-4.165,6.52-8.474,9.472-12.755c1.47-2.145,2.854-4.323,4.006-6.46
			c0.572-1.062,1.085-2.124,1.442-3.099c0.358-0.948,0.557-1.911,0.499-2.156c-0.009-0.018-0.008-0.046-0.02-0.028
			c-0.007-0.02,0.005,0.06-0.011-0.043l-0.035-0.226l-0.139-0.904c-0.094-0.602-0.171-1.2-0.308-1.812l-0.364-1.825l-0.424-1.837
			c-0.609-2.45-1.301-4.909-2.094-7.364c-0.801-2.45-1.646-4.903-2.557-7.337c-0.448-1.22-0.91-2.436-1.392-3.64l-1.435-3.521
			L408.823,216.282z"/>
		<g>
			<path style="fill:#407BFF;" d="M407.519,210.909c6.732,2.59,11.561,27.21,11.561,27.21l-16.03,6.316
				c0,0-5.374-12.374-7.176-21.52C393.977,213.284,399.883,207.97,407.519,210.909z"/>
			<path style="opacity:0.3;" d="M407.519,210.909c6.732,2.59,11.561,27.21,11.561,27.21l-16.03,6.316c0,0-5.374-12.374-7.176-21.52
				C393.977,213.284,399.883,207.97,407.519,210.909z"/>
		</g>
		<path style="fill:#407BFF;" d="M400.536,407.382c-0.574,0-1.111-0.098-1.453-0.385c-0.271-0.228-0.395-0.545-0.37-0.944
			c0.02-0.298,0.178-0.438,0.307-0.505c0.837-0.433,3.269,1.066,3.543,1.238c0.06,0.038,0.093,0.109,0.082,0.18
			c-0.012,0.071-0.065,0.129-0.135,0.146C401.986,407.237,401.234,407.382,400.536,407.382z M399.415,405.82
			c-0.094,0-0.172,0.014-0.232,0.045c-0.048,0.024-0.104,0.07-0.112,0.21c-0.018,0.284,0.061,0.496,0.242,0.648
			c0.413,0.346,1.397,0.394,2.679,0.136C401.14,406.367,399.993,405.82,399.415,405.82z"/>
		<path style="fill:#407BFF;" d="M402.468,407.116c-0.029,0-0.059-0.007-0.085-0.022c-0.781-0.424-2.29-2.077-2.131-2.918
			c0.029-0.152,0.142-0.416,0.569-0.469c0.268-0.032,0.532,0.043,0.761,0.229c0.876,0.716,1.057,2.894,1.063,2.986
			c0.006,0.065-0.025,0.128-0.08,0.163C402.535,407.106,402.502,407.116,402.468,407.116z M400.945,404.058
			c-0.026,0-0.054,0.002-0.081,0.006c-0.233,0.028-0.252,0.135-0.261,0.18c-0.095,0.497,0.867,1.746,1.643,2.335
			c-0.088-0.636-0.328-1.905-0.891-2.363C401.227,404.109,401.093,404.058,400.945,404.058z"/>
		<path style="fill:#407BFF;" d="M355.198,407.383c-0.75,0-1.442-0.116-1.834-0.464c-0.25-0.221-0.362-0.513-0.335-0.869
			c0.016-0.212,0.117-0.377,0.294-0.476c0.914-0.51,3.949,1.027,4.292,1.204c0.067,0.035,0.105,0.109,0.095,0.185
			c-0.011,0.075-0.067,0.135-0.142,0.149C356.93,407.24,356.028,407.383,355.198,407.383z M353.831,405.821
			c-0.139,0-0.252,0.021-0.333,0.065c-0.072,0.04-0.105,0.097-0.113,0.19c-0.018,0.242,0.053,0.43,0.216,0.574
			c0.464,0.412,1.705,0.484,3.371,0.207C355.929,406.361,354.546,405.821,353.831,405.821z"/>
		<path style="fill:#407BFF;" d="M357.533,407.116c-0.024,0-0.05-0.005-0.073-0.016c-0.91-0.408-2.714-2.04-2.576-2.893
			c0.032-0.201,0.175-0.45,0.665-0.5c0.373-0.037,0.698,0.065,0.991,0.307c0.96,0.787,1.163,2.82,1.171,2.906
			c0.006,0.064-0.021,0.125-0.073,0.162C357.606,407.104,357.57,407.116,357.533,407.116z M355.693,404.058
			c-0.035,0-0.071,0.002-0.108,0.006c-0.322,0.032-0.343,0.159-0.349,0.201c-0.083,0.512,1.143,1.794,2.071,2.353
			c-0.097-0.594-0.365-1.811-0.995-2.327C356.123,404.135,355.92,404.058,355.693,404.058z"/>
		<path style="fill:#FF8B7B;" d="M393.496,273.021l-7.401,1.968l6.135,7.431c0,0,5.929-3.075,4.651-6.398L393.496,273.021z"/>
		<polygon style="fill:#FF8B7B;" points="380.737,281.171 386.095,286.989 392.231,282.42 386.095,274.989 		"/>
	</g>
</g>
<g id="Character_1">
	<g>
		<path style="fill:#B55B52;" d="M141.629,193.009c-1.67,1.704-3.46,3.589-5.104,5.473c-1.671,1.889-3.308,3.808-4.858,5.783
			c-1.555,1.974-3.019,3.997-4.427,6.042l-1.025,1.55l-0.961,1.576c-0.33,0.523-0.627,1.056-0.913,1.592l-0.791,1.455
			c-0.265,0.528-0.458,1.539-0.544,2.598c-0.088,1.074-0.07,2.25,0.003,3.442c0.153,2.395,0.504,4.881,0.95,7.365
			c0.429,2.492,0.966,4.994,1.568,7.487c0.569,2.496,1.23,5.012,1.883,7.467l-3.663,1.371c-2.236-4.864-4.051-9.81-5.555-14.99
			c-0.723-2.595-1.36-5.24-1.744-8.034c-0.185-1.401-0.32-2.835-0.309-4.367c0.024-1.536,0.141-3.159,0.86-5.056
			c0.223-0.551,0.349-0.775,0.503-1.105l0.452-0.938c0.297-0.63,0.604-1.251,0.939-1.851l0.985-1.816l1.043-1.769
			c1.415-2.337,2.919-4.609,4.559-6.756c1.625-2.161,3.299-4.274,5.069-6.303c1.803-2.029,3.565-3.966,5.616-5.915L141.629,193.009z
			"/>
		<g>
			<path style="fill:#407BFF;" d="M142.054,181.09c-5.357,0.243-10.442,9.133-10.442,9.133l6.325,12.92
				c0,0,10.337-6.462,10.46-14.311C148.476,183.729,147.322,180.851,142.054,181.09z"/>
			<path style="opacity:0.5;" d="M142.054,181.09c-5.357,0.243-10.442,9.133-10.442,9.133l6.325,12.92
				c0,0,10.337-6.462,10.46-14.311C148.476,183.729,147.322,180.851,142.054,181.09z"/>
		</g>
		<path style="fill:#B55B52;" d="M126.394,243.292l6.516,1.936l-4.336,4.39c0,0-4.694-1.447-5.349-4.639L126.394,243.292z"/>
		<polygon style="fill:#B55B52;" points="136.854,250.243 135.756,254.44 128.574,249.618 132.91,245.228 		"/>
		<g>
			
				<rect x="128.868" y="208.639" transform="matrix(0.9997 -0.024 0.024 0.9997 -5.6547 5.052)" style="fill:#407BFF;" width="158.179" height="59.636"/>
			
				<rect x="128.868" y="208.639" transform="matrix(0.9997 -0.024 0.024 0.9997 -5.6547 5.052)" style="opacity:0.6;fill:#FFFFFF;" width="158.179" height="59.636"/>
		</g>
		<g>
			
				<rect x="219.672" y="212.398" transform="matrix(0.9997 -0.024 0.024 0.9997 -5.2847 6.0349)" style="fill:#407BFF;" width="58.973" height="22.234"/>
			
				<rect x="219.672" y="212.398" transform="matrix(0.9997 -0.024 0.024 0.9997 -5.2847 6.0349)" style="opacity:0.7;fill:#FFFFFF;" width="58.973" height="22.234"/>
		</g>
		<g>
			
				<rect x="188.074" y="240.064" transform="matrix(0.9997 -0.024 0.024 0.9997 -5.9567 5.2857)" style="fill:#407BFF;" width="58.973" height="22.234"/>
			
				<rect x="188.074" y="240.064" transform="matrix(0.9997 -0.024 0.024 0.9997 -5.9567 5.2857)" style="opacity:0.7;fill:#FFFFFF;" width="58.973" height="22.234"/>
		</g>
		<path style="fill:#263238;" d="M178.95,161.385c-0.101,0.611,0.143,1.17,0.545,1.248c0.402,0.078,0.81-0.355,0.911-0.966
			c0.101-0.611-0.143-1.17-0.545-1.248C179.458,160.341,179.051,160.774,178.95,161.385z"/>
		<path style="fill:#263238;" d="M179.677,160.419l1.547-0.137C181.224,160.281,180.277,161.282,179.677,160.419z"/>
		<path style="fill:#A02724;" d="M179.369,162.08c0,0,0.609,2.834,1.548,4.327c-0.936,0.596-2.26-0.016-2.26-0.016L179.369,162.08z"
			/>
		<path style="fill:#263238;" d="M180.45,157.467c-0.058,0-0.118-0.014-0.172-0.044c-1.447-0.777-2.641-0.191-2.691-0.165
			c-0.18,0.092-0.399,0.02-0.492-0.16c-0.091-0.18-0.021-0.398,0.157-0.491c0.063-0.033,1.576-0.793,3.371,0.172
			c0.178,0.096,0.245,0.317,0.149,0.495C180.707,157.398,180.581,157.467,180.45,157.467z"/>
		<path style="fill:#B55B52;" d="M159.414,166.433c0.144,4.67-0.332,13.083-3.993,15.471c0,0,0.483,4.802,8.889,6.43
			c9.243,1.79,5.171-3.707,5.171-3.707c-4.847-2.175-4.102-5.871-2.646-9.196L159.414,166.433z"/>
		<path style="fill:#B55B52;" d="M184.594,193.684c0.573,2.327,1.303,4.88,2.107,7.274c0.824,2.415,1.698,4.807,2.711,7.111
			c1.009,2.304,2.145,4.525,3.433,6.579c1.269,2.057,2.701,3.965,4.318,5.467c0.807,0.749,1.654,1.404,2.533,1.907
			c0.438,0.257,0.884,0.477,1.337,0.655c0.288,0.113,0.298,0.127,0.413,0.161c0.1,0.03,0.212,0.055,0.345,0.064
			c0.518,0.059,1.392-0.098,2.317-0.499c0.93-0.398,1.917-0.984,2.892-1.652c3.908-2.753,7.595-6.653,10.951-10.521l3.252,2.173
			c-0.682,1.263-1.394,2.407-2.15,3.574c-0.746,1.164-1.543,2.297-2.395,3.4c-1.701,2.209-3.52,4.378-5.774,6.321
			c-1.126,0.976-2.356,1.904-3.82,2.693c-1.462,0.764-3.192,1.492-5.359,1.518c-0.534,0.007-1.089-0.039-1.643-0.139
			c-0.541-0.089-1.167-0.287-1.502-0.412c-0.802-0.278-1.572-0.618-2.304-1.004c-1.473-0.764-2.79-1.705-3.982-2.722
			c-4.742-4.135-7.644-9.235-10.029-14.334c-1.183-2.565-2.219-5.167-3.092-7.814c-0.882-2.673-1.655-5.251-2.278-8.128
			L184.594,193.684z"/>
		<path style="fill:#B55B52;" d="M217.561,210.622l2.265-4.165l6.3,1.668c0,0-3.773,5.755-7.014,5.764L217.561,210.622z"/>
		<polygon style="fill:#B55B52;" points="224.958,204.958 229.75,208.125 226.125,208.125 219.825,206.457 		"/>
		<polygon style="fill:#B55B52;" points="139.302,406.396 147.021,406.964 149.314,389.239 141.595,388.67 		"/>
		<polygon style="fill:#B55B52;" points="78.556,368.284 83.892,374.009 98.359,363.648 93.024,357.922 		"/>
		<path style="fill:#263238;" d="M86.226,373.117l-4.452-7.597c-0.162-0.276-0.48-0.391-0.765-0.277l-6.342,2.556
			c-0.658,0.265-0.916,1.137-0.532,1.769c1.597,2.623,2.496,3.811,4.454,7.152c1.205,2.055,2.757,5.18,4.421,8.018
			c1.627,2.776,4.477,1.392,4.031,0.065c-2-5.948-0.964-7.68-0.555-10.319C86.559,374.008,86.463,373.522,86.226,373.117z"/>
		<path style="fill:#263238;" d="M147.503,405.865h-8.676c-0.316,0-0.577,0.219-0.63,0.527l-1.165,6.865
			c-0.121,0.712,0.474,1.386,1.203,1.373c3.026-0.052,4.489-0.23,8.304-0.23c2.347,0,7.196,0.244,10.438,0.244
			c3.17,0,3.497-3.205,2.154-3.496c-6.019-1.302-8.355-3.097-10.35-4.809C148.422,406.031,147.965,405.865,147.503,405.865z"/>
		<g>
			<polygon style="fill:#9E4541;" points="149.311,389.244 148.039,399.095 140.408,397.817 141.589,388.675 			"/>
			<polygon style="fill:#9E4541;" points="93.018,357.924 98.356,363.651 92.369,367.936 86.845,362.341 			"/>
		</g>
		<g>
			<path style="fill:#407BFF;" d="M139.881,228.113c5.986,1.157,18.683,3.618,30.962,6.001c14.631-43.073,11.13-44.467,11.13-44.467
				s-3.106-1.73-7.027-3.262c-0.15-0.059-0.29-0.109-0.42-0.158c-1.979-0.722-2.397-0.83-5.049-1.602
				c-4.56-1.078-8.807-1.958-14.059-2.719c-0.337-0.049-0.675-0.099-1.003-0.139c-0.952-0.119-1.895-0.217-2.807-0.306
				c-0.615-0.069-1.229-0.109-1.814-0.148c-0.693-0.04-1.367-0.079-2-0.109c-3.386-0.168-5.806-0.119-5.806-0.119
				C143.762,207.965,142.469,215.686,139.881,228.113z"/>
			<path style="opacity:0.5;" d="M139.881,228.113c5.986,1.157,18.683,3.618,30.962,6.001c14.631-43.073,11.13-44.467,11.13-44.467
				s-3.106-1.73-7.027-3.262c-0.15-0.059-0.29-0.109-0.42-0.158c-1.979-0.722-2.397-0.83-5.049-1.602
				c-4.56-1.078-8.807-1.958-14.059-2.719c-0.337-0.049-0.675-0.099-1.003-0.139c-0.952-0.119-1.895-0.217-2.807-0.306
				c-0.615-0.069-1.229-0.109-1.814-0.148c-0.693-0.04-1.367-0.079-2-0.109c-3.386-0.168-5.806-0.119-5.806-0.119
				C143.762,207.965,142.469,215.686,139.881,228.113z"/>
		</g>
		<g>
			<path style="fill:#407BFF;" d="M175.71,202.753c-1.21,6.06,0.07,11.1,0.91,13.51c2.57-8.42,4.03-14.18,4.82-18.12
				C179.07,197.833,176.54,198.603,175.71,202.753z"/>
			<path style="opacity:0.6;" d="M175.71,202.753c-1.21,6.06,0.07,11.1,0.91,13.51c2.57-8.42,4.03-14.18,4.82-18.12
				C179.07,197.833,176.54,198.603,175.71,202.753z"/>
		</g>
		<g>
			<path style="fill:#407BFF;" d="M181.71,189.503c5.165,3.371,8.457,10.872,9.332,15.169l-11.984,9.768
				c0,0-6.529-14.578-4.386-18.304C176.903,192.257,179.757,188.228,181.71,189.503z"/>
			<path style="opacity:0.5;" d="M181.71,189.503c5.165,3.371,8.457,10.872,9.332,15.169l-11.984,9.768
				c0,0-6.529-14.578-4.386-18.304C176.903,192.257,179.757,188.228,181.71,189.503z"/>
		</g>
		<path style="fill:#B55B52;" d="M158.652,155.721c-0.777,7.599-1.268,10.794,1.91,15.387c4.78,6.909,14.32,6.477,17.36-0.669
			c2.736-6.433,3.547-17.779-3.352-22.199C167.772,143.885,159.428,148.122,158.652,155.721z"/>
		<path style="fill:#263238;" d="M158.758,140.208c-4.667,3.459-1.677,4.292-3.667,7.78c-2.137,3.745-4.367-0.52-8.611,3.596
			c-2.75,2.667,1.944,5.5-1.472,10.198c-2.654,3.65-5.536,0.488-4.417,7.969c0.764,5.107-2.361,4.472-4.469,7.361
			c-3.023,4.143-0.313,7.111,7.407,8.667c7.72,1.555,2.218,9.323,9.479,9.555c7.917,0.254,6.078-10.065,9.945-7.555
			c3.722,2.415,10.883,0.218,10.461-5.946c-0.388-5.657-6.669-5.463-1.583-9.332c3.98-3.028,5.206-2.989,2.392-9.437
			c-2.392-5.48,6.389-4.646,6.226-9.396c-0.294-8.566-6.226-6-8.094-10.389C171.142,140.429,164.743,135.772,158.758,140.208z"/>
		<path style="fill:#B55B52;" d="M173.418,159.679c-0.013,1.389,0.592,2.864,1.374,3.933c1.177,1.609,2.564,1.184,2.907-0.292
			c0.308-1.329,0.068-3.768-1.435-4.887C174.783,157.33,173.433,158.091,173.418,159.679z"/>
		<g>
			<path style="fill:#407BFF;" d="M162.67,232.528c0,0-15.085,50.513-22.453,79.605c-7.774,30.694-44.874,55.712-44.874,55.712
				l-7.915-7.875c0,0,24.802-20.933,32.333-49.576c15.288-58.144,7.933-70.46,20.122-82.279L162.67,232.528z"/>
			<path style="opacity:0.8;fill:#FFFFFF;" d="M162.67,232.528c0,0-15.085,50.513-22.453,79.605
				c-7.774,30.694-44.874,55.712-44.874,55.712l-7.915-7.875c0,0,24.802-20.933,32.333-49.576
				c15.288-58.144,7.933-70.46,20.122-82.279L162.67,232.528z"/>
		</g>
		<polygon style="fill:#407BFF;" points="96.025,368.988 86.143,359.156 88.829,356.175 100.857,366.418 		"/>
		<g>
			<path style="fill:#407BFF;" d="M155.586,243.287c-9.896,7.632-10.558,36.716-10.331,49.855
				c5.032-18.368,10.984-38.802,14.464-50.626C158.769,241.715,157.405,241.883,155.586,243.287z"/>
			<path style="opacity:0.6;fill:#FFFFFF;" d="M155.586,243.287c-9.896,7.632-10.558,36.716-10.331,49.855
				c5.032-18.368,10.984-38.802,14.464-50.626C158.769,241.715,157.405,241.883,155.586,243.287z"/>
		</g>
		<path style="fill:#407BFF;" d="M87.827,377.239c-0.092,0-0.186-0.014-0.279-0.043c-0.942-0.287-1.61-2.011-1.924-3.013
			c-0.022-0.07,0-0.146,0.056-0.194c0.057-0.048,0.136-0.057,0.201-0.023c0.285,0.146,2.787,1.451,2.887,2.439
			c0.022,0.22-0.065,0.415-0.253,0.565C88.29,377.149,88.06,377.239,87.827,377.239z M86.117,374.508
			c0.466,1.321,1.03,2.184,1.538,2.339c0.208,0.065,0.415,0.011,0.631-0.162c0.117-0.094,0.124-0.179,0.118-0.243
			C88.351,375.92,87.103,375.06,86.117,374.508z"/>
		<g>
			<path style="fill:#407BFF;" d="M170.379,234.111c0,0,1.928,61.116-2.39,84.136c-4.491,23.944-18.17,78.412-18.17,78.412
				l-11.133-1.437c0,0,7.04-55.023,10.029-78.813c3.259-25.936-1.011-86.688-1.011-86.688L170.379,234.111z"/>
			<path style="opacity:0.8;fill:#FFFFFF;" d="M170.379,234.111c0,0,1.928,61.116-2.39,84.136
				c-4.491,23.944-18.17,78.412-18.17,78.412l-11.133-1.437c0,0,7.04-55.023,10.029-78.813c3.259-25.936-1.011-86.688-1.011-86.688
				L170.379,234.111z"/>
		</g>
		<polygon style="fill:#407BFF;" points="152.187,397.294 136.318,395.246 136.515,391.476 153.778,392.228 		"/>
		<path style="fill:#407BFF;" d="M88.081,374.828c-0.863,0-1.909-0.264-2.377-0.542c-0.056-0.033-0.089-0.093-0.089-0.158
			c0.001-0.064,0.035-0.124,0.091-0.157c0.08-0.046,1.958-1.137,3.023-0.788c0.291,0.094,0.5,0.282,0.62,0.559
			c0.189,0.431,0.003,0.684-0.125,0.797C88.988,374.746,88.562,374.828,88.081,374.828z M86.197,374.12
			c0.869,0.351,2.384,0.497,2.784,0.144c0.066-0.059,0.129-0.153,0.032-0.376c-0.079-0.179-0.209-0.296-0.398-0.357
			C87.979,373.326,86.842,373.791,86.197,374.12z"/>
		<path style="fill:#407BFF;" d="M150.373,407.216c-0.851,0-1.771-0.146-2.424-0.276c-0.077-0.016-0.135-0.077-0.146-0.154
			c-0.011-0.077,0.028-0.152,0.098-0.188c0.354-0.181,3.479-1.761,4.41-1.23c0.179,0.102,0.281,0.27,0.296,0.487
			c0.023,0.364-0.095,0.664-0.353,0.89C151.848,407.097,151.139,407.216,150.373,407.216z M148.561,406.68
			c1.7,0.282,2.971,0.209,3.451-0.212c0.17-0.149,0.245-0.342,0.229-0.591c-0.006-0.095-0.039-0.152-0.11-0.192
			C151.624,405.398,149.845,406.07,148.561,406.68z"/>
		<path style="fill:#407BFF;" d="M147.984,406.942c-0.038,0-0.076-0.012-0.107-0.034c-0.053-0.039-0.082-0.103-0.074-0.168
			c0.015-0.142,0.412-3.485,2.249-3.286c0.499,0.05,0.644,0.304,0.676,0.507c0.14,0.872-1.728,2.546-2.669,2.966
			C148.035,406.938,148.01,406.942,147.984,406.942z M149.908,403.813c-1.114,0-1.553,1.833-1.69,2.618
			c0.962-0.574,2.233-1.889,2.148-2.412c-0.006-0.041-0.027-0.168-0.352-0.201C149.978,403.815,149.943,403.813,149.908,403.813z"/>
		<path style="fill:#407BFF;" d="M139.718,226.218l-1.852,2.485c-0.144,0.193,0.075,0.46,0.433,0.53l32.473,6.289
			c0.279,0.054,0.533-0.037,0.579-0.208l0.734-2.702c0.051-0.187-0.164-0.396-0.47-0.455l-31.356-6.073
			C140.03,226.04,139.81,226.094,139.718,226.218z"/>
		<g>
			<path style="fill:#407BFF;" d="M143.353,230.52l-0.84-0.163c-0.167-0.032-0.28-0.143-0.252-0.245l0.985-3.504
				c0.029-0.102,0.189-0.16,0.357-0.128l0.84,0.163c0.167,0.032,0.28,0.143,0.252,0.245l-0.985,3.504
				C143.681,230.495,143.52,230.552,143.353,230.52z"/>
			<path style="opacity:0.8;fill:#FFFFFF;" d="M143.353,230.52l-0.84-0.163c-0.167-0.032-0.28-0.143-0.252-0.245l0.985-3.504
				c0.029-0.102,0.189-0.16,0.357-0.128l0.84,0.163c0.167,0.032,0.28,0.143,0.252,0.245l-0.985,3.504
				C143.681,230.495,143.52,230.552,143.353,230.52z"/>
		</g>
		<g>
			<path style="fill:#407BFF;" d="M164.56,234.677l-0.84-0.163c-0.167-0.032-0.281-0.143-0.252-0.245l0.985-3.504
				c0.029-0.103,0.189-0.16,0.357-0.128l0.84,0.163c0.167,0.032,0.281,0.143,0.252,0.245l-0.985,3.504
				C164.887,234.652,164.727,234.709,164.56,234.677z"/>
			<path style="opacity:0.8;fill:#FFFFFF;" d="M164.56,234.677l-0.84-0.163c-0.167-0.032-0.281-0.143-0.252-0.245l0.985-3.504
				c0.029-0.103,0.189-0.16,0.357-0.128l0.84,0.163c0.167,0.032,0.281,0.143,0.252,0.245l-0.985,3.504
				C164.887,234.652,164.727,234.709,164.56,234.677z"/>
		</g>
	</g>
</g>
</svg>
