<svg width="28" height="28" viewBox="0 0 28 28" fill="none" xmlns="http://www.w3.org/2000/svg">
<g id="user-star-01">
<g id="elements">
<path id="Vector" d="M14.5833 25.6663H7.68927C5.88633 25.6663 4.45228 24.789 3.16469 23.5623C0.528844 21.0511 4.85652 19.0443 6.50709 18.0615C9.13142 16.4989 12.2342 15.9958 15.1666 16.5521" stroke="rgb(51,54,124)" stroke-width="1.75" stroke-linecap="round" stroke-linejoin="round"/>
<path id="Ellipse 1382" d="M18.0833 7.58301C18.0833 10.4825 15.7327 12.833 12.8333 12.833C9.93376 12.833 7.58325 10.4825 7.58325 7.58301C7.58325 4.68351 9.93376 2.33301 12.8333 2.33301C15.7327 2.33301 18.0833 4.68351 18.0833 7.58301Z" stroke="rgb(51,54,124)" stroke-width="1.75"/>
<path id="Vector_2" d="M21.8061 17.007L22.6274 18.663C22.7394 18.8935 23.038 19.1147 23.29 19.157L24.7785 19.4064C25.7304 19.5663 25.9544 20.2626 25.2684 20.9495L24.1112 22.1163C23.9152 22.3139 23.8079 22.695 23.8686 22.9678L24.1999 24.4122C24.4612 25.5554 23.8593 25.9977 22.856 25.4002L21.4609 24.5674C21.2089 24.4169 20.7936 24.4169 20.537 24.5674L19.1418 25.4002C18.1432 25.9977 17.5366 25.5507 17.7979 24.4122L18.1292 22.9678C18.1899 22.695 18.0826 22.3139 17.8866 22.1163L16.7294 20.9495C16.0481 20.2626 16.2674 19.5663 17.2193 19.4064L18.7078 19.157C18.9551 19.1147 19.2538 18.8935 19.3658 18.663L20.187 17.007C20.6349 16.1084 21.3629 16.1084 21.8061 17.007Z" stroke="rgb(51,54,124)" stroke-width="1.75" stroke-linecap="round" stroke-linejoin="round"/>
</g>
</g>
</svg>
